<svg xmlns="http://www.w3.org/2000/svg" viewBox="0 0 32 32"><title>75-Images</title><g id="_75-Images" data-name="75-Images"><path fill="blue" d="M29,8H28V7a3,3,0,0,0-3-3H24V3a3,3,0,0,0-3-3H3A3,3,0,0,0,0,3V21a3,3,0,0,0,3,3H4v1a3,3,0,0,0,3,3H8v1a3,3,0,0,0,3,3H29a3,3,0,0,0,3-3V11A3,3,0,0,0,29,8ZM3,22a1,1,0,0,1-1-1V3A1,1,0,0,1,3,2H21a1,1,0,0,1,1,1V21a1,1,0,0,1-1,1Zm4,4a1,1,0,0,1-1-1V24H21a3,3,0,0,0,3-3V6h1a1,1,0,0,1,1,1V25a1,1,0,0,1-1,1Zm23,3a1,1,0,0,1-1,1H11a1,1,0,0,1-1-1V28H25a3,3,0,0,0,3-3V10h1a1,1,0,0,1,1,1Z"/></g></svg>